<?xml version="1.0" encoding="UTF-8" standalone="no"?>
<!-- Created with Inkscape (http://www.inkscape.org/) -->
<svg
   xmlns:dc="http://purl.org/dc/elements/1.1/"
   xmlns:cc="http://creativecommons.org/ns#"
   xmlns:rdf="http://www.w3.org/1999/02/22-rdf-syntax-ns#"
   xmlns:svg="http://www.w3.org/2000/svg"
   xmlns="http://www.w3.org/2000/svg"
   xmlns:sodipodi="http://sodipodi.sourceforge.net/DTD/sodipodi-0.dtd"
   xmlns:inkscape="http://www.inkscape.org/namespaces/inkscape"
   width="410.85022"
   height="708.66144"
   id="svg2357"
   sodipodi:version="0.32"
   inkscape:version="0.46"
   version="1.0"
   sodipodi:docbase="/home/melwe/Utile/Ecles/ImagesMemory"
   sodipodi:docname="giraffe.svg"
   inkscape:output_extension="org.inkscape.output.svg.inkscape">
  <defs
     id="defs2359">
    <inkscape:perspective
       sodipodi:type="inkscape:persp3d"
       inkscape:vp_x="0 : 354.33069 : 1"
       inkscape:vp_y="0 : 1000 : 0"
       inkscape:vp_z="708.66138 : 354.33069 : 1"
       inkscape:persp3d-origin="354.33069 : 236.22046 : 1"
       id="perspective31" />
  </defs>
  <sodipodi:namedview
     id="base"
     pagecolor="#ffffff"
     bordercolor="#666666"
     borderopacity="1.0"
     inkscape:pageopacity="0.0"
     inkscape:pageshadow="2"
     inkscape:zoom="1.4"
     inkscape:cx="359.56126"
     inkscape:cy="273.1528"
     inkscape:document-units="px"
     inkscape:current-layer="layer1"
     inkscape:window-width="1600"
     inkscape:window-height="1128"
     inkscape:window-x="0"
     inkscape:window-y="24"
     width="20cm"
     height="20cm"
     units="cm"
     showgrid="false" />
  <metadata
     id="metadata2362">
    <rdf:RDF>
      <cc:Work
         rdf:about="">
        <dc:format>image/svg+xml</dc:format>
        <dc:type
           rdf:resource="http://purl.org/dc/dcmitype/StillImage" />
      </cc:Work>
    </rdf:RDF>
  </metadata>
  <g
     inkscape:label="Calque 1"
     inkscape:groupmode="layer"
     id="layer1"
     transform="translate(-197.40272,-94.399667)">
    <g
       id="g2473"
       transform="matrix(0.3501245,0,0,0.3501245,196.75525,153.22285)">
      <path
         style="opacity:1;fill:#000000;fill-opacity:1;stroke-width:3;stroke-miterlimit:4;stroke-dasharray:none"
         d="M 426.3201,622.51526 C 445.18352,662.51994 460.33474,704.7281 464.98901,748.936 C 472.80549,776.52671 488.56273,801.61069 491.21273,830.704 C 504.25526,896.69395 524.59722,960.93382 538.18072,1026.8129 C 548.69454,1067.3114 562.31198,1107.0439 568.11394,1148.6586 C 574.4367,1200.0685 600.50183,1246.4964 606.60065,1297.8534 C 609.32477,1337.5863 608.12216,1377.749 617.3264,1416.7874 C 625.06783,1459.8441 629.75984,1503.3949 635.31636,1546.709 C 644.70903,1574.8655 645.15714,1604.0633 639.85913,1632.934 C 638.22377,1671.9891 641.03944,1711.11 639.51957,1750.1496 C 645.59523,1777.2543 632.77995,1810.6777 602.22152,1813.7718 C 578.36802,1807.8909 601.66317,1772.6735 594.68151,1754.5664 C 595.65655,1713.4974 592.06148,1671.995 596.19595,1631.2025 C 605.56648,1594.8585 582.93877,1560.3678 584.58481,1524.0232 C 577.77652,1463.1 561.92842,1403.0046 563.03212,1341.4203 C 560.90634,1298.6687 547.56464,1257.6948 533.14565,1217.8054 C 520.27444,1166.971 514.72743,1114.3709 497.02541,1064.7622 C 483.75976,1012.1021 472.65742,958.92159 457.96863,906.61351 C 449.15981,877.79289 446.74525,847.44508 437.9619,818.73763 C 426.54789,794.40124 417.67153,769.08948 414.57045,742.28835 C 410.23351,715.4368 402.12387,689.064 388.03518,665.70533 C 379.58661,639.45393 409.39873,631.38189 426.3201,622.51526 z"
         id="path2429" />
      <path
         style="opacity:1;fill:#000000;fill-opacity:1;stroke-width:3;stroke-miterlimit:4;stroke-dasharray:none"
         d="M 631.25372,432.1105 C 628.94422,478.88983 668.95913,511.05033 684.65315,551.86789 C 709.9226,609.18062 724.5468,670.45672 748.59381,728.25031 C 769.98764,790.28772 805.028,846.11777 832.80741,905.21288 C 854.07496,955.25968 866.44661,1008.5638 889.6426,1057.8813 C 914.23541,1116.0668 934.21784,1176.1687 950.10831,1237.2757 C 967.30741,1312.3597 990.04032,1385.9613 1015.2083,1458.7193 C 1042.382,1543.4461 1076.7084,1625.7112 1111.2433,1707.6596 C 1126.6117,1736.8019 1136.4732,1770.1638 1162.5162,1792.1704 C 1192.0959,1810.8873 1164.7393,1851.1195 1136.7456,1839.3208 C 1104.7624,1811.9338 1085.8753,1772.5624 1068.0607,1735.0581 C 1036.6759,1662.4318 1007.9986,1588.6191 980.53166,1514.4275 C 968.41998,1476.8363 956.36616,1439.3005 943.66242,1401.8986 C 918.37665,1321.8226 903.10921,1238.818 874.63641,1159.7453 C 852.72373,1092.4899 819.2761,1029.4187 801.00479,960.90541 C 773.45252,886.19536 725.10265,820.85343 701.45588,744.47755 C 680.78618,692.47626 664.47574,638.85768 645.32018,586.36681 C 629.94644,550.02463 604.91178,518.73152 587.72348,483.51877 C 580.25064,455.682 607.84812,437.16375 631.25372,432.1105 z"
         id="path2431" />
      <path
         style="opacity:1;fill:#000000;fill-opacity:1;stroke-width:3;stroke-miterlimit:4;stroke-dasharray:none"
         d="M 648.59113,217.54456 C 649.81804,249.3304 672.79357,281.63018 656.57327,312.87875 C 632.57416,371.13846 634.47837,435.43939 620.23633,495.96557 C 608.64934,526.05847 582.20143,546.57322 565.34214,573.48307 C 542.73191,606.16457 506.62386,626.43648 468.45249,635.30971 C 434.31115,643.1748 397.68354,646.27692 363.44011,638.16596 C 334.41031,626.11695 309.03419,605.30184 277.43223,599.80794 C 246.28713,588.21153 230.34363,555.78219 227.62925,524.37313 C 218.54298,468.48798 204.92194,408.96852 163.31944,367.65305 C 164.0267,340.37045 209.3678,328.67349 219.98258,356.45562 C 255.45477,401.40414 265.78919,459.24963 274.96806,514.21317 C 278.38636,538.2185 291.91751,561.45804 316.40451,568.9607 C 344.62833,577.55605 369.86591,592.37085 396.07032,605.48357 C 432.64821,622.01457 472.39336,608.91204 510.03356,605.17807 C 525.54089,606.94808 490.76751,619.42589 484.94208,624.69723 C 457.47708,641.65394 498.54038,619.37298 503.87859,610.19643 C 519.85261,595.48946 530.58706,576.14418 543.72577,559.3689 C 571.56943,536.17344 582.69885,499.3757 584.14485,464.30404 C 589.68086,413.87678 597.13395,362.95288 617.24522,316.02498 C 623.45272,289.16056 590.39805,259.61673 614.33129,236.28316 C 623.63173,226.8308 636.32055,221.85751 648.59113,217.54456 z"
         id="path2433" />
      <path
         style="opacity:1;fill:#000000;fill-opacity:1;stroke-width:3;stroke-miterlimit:4;stroke-dasharray:none"
         d="M 128.47835,228.50412 C 95.095509,237.75602 59.844344,237.32635 26.596778,247.19357 C 34.682735,235.6265 68.338312,223.65742 47.602998,247.42383 C 43.174428,277.33349 75.338456,293.70474 99.184193,301.69917 C 126.6258,313.03006 155.40337,327.48088 185.99956,322.62409 C 176.57155,346.55438 146.02439,355.89055 122.25072,352.53949 C 91.40139,347.24279 63.331902,332.23369 34.886571,319.97582 C 5.394291,307.97526 -13.151638,265.78053 17.928829,244.53721 C 44.842748,223.41597 78.062685,209.9648 112.35289,207.84076 C 127.66058,208.26725 153.68204,199.09343 161.42202,201.31355 C 154.43497,214.59684 137.74096,217.45396 128.47835,228.50412 z"
         id="path2435" />
      <path
         style="opacity:1;fill:#000000;fill-opacity:1;stroke-width:3;stroke-miterlimit:4;stroke-dasharray:none"
         d="M 612.0835,149.4277 C 629.8076,156.39068 654.76784,145.0989 667.02932,137.15451 C 653.71655,142.59797 623.80651,164.50218 621.43803,159.84973 C 667.75587,117.38855 727.59038,87.681459 790.79392,83.874524 C 822.95934,78.56324 842.0496,114.94689 827.70882,141.40644 C 819.16141,161.91628 800.83572,176.43241 792.74915,197.39746 C 783.81967,216.96551 769.87303,234.58508 749.77751,243.41531 C 740.8694,249.11765 709.88501,266.36369 735.8494,251.63219 C 749.17268,247.54361 711.21975,268.98248 700.66465,271.10436 C 683.13233,277.0943 663.53954,278.88697 645.80607,272.67103 C 653.47003,243.08769 688.06375,243.70442 711.96272,246.1133 C 723.77499,243.28446 752.05822,238.38311 725.97339,249.75009 C 712.85929,257.51958 709.69885,256.96972 725.18956,248.96154 C 735.67796,242.8177 746.54725,236.3651 729.58161,246.77811 C 712.4136,256.53361 747.47653,227.95933 747.67295,217.77984 C 757.94258,197.89196 769.46838,178.54499 783.60785,161.30514 C 800.10073,127.22316 761.253,99.936384 730.74288,116.04922 C 715.10842,118.51187 678.30087,132.754 677.30007,128.72023 C 684.9223,123.15788 702.37434,115.09889 685.43093,126.89604 C 656.86914,150.36003 626.78128,179.96892 587.68694,181.14829 C 557.41549,174.03174 607.19224,158.54265 612.0835,149.4277 z"
         id="path2437" />
      <path
         style="opacity:1;fill:#000000;fill-opacity:1;stroke-width:3;stroke-miterlimit:4;stroke-dasharray:none"
         d="M 185.03883,189.27032 C 177.28301,194.43985 141.34915,219.12522 159.81418,198.3159 C 191.99382,161.17319 228.00333,127.46969 257.0568,87.635638 C 293.02545,42.460706 334.36659,-2.7875616 389.9158,-23.027921 C 413.21638,-31.541657 438.94591,-20.634617 452.24284,-0.36958796 C 469.90064,23.477991 500.51283,30.145139 523.25623,47.769827 C 540.80688,60.355436 557.27613,75.183654 570.07692,92.519429 C 586.39382,116.69122 541.22054,141.80414 526.17884,119.23986 C 500.42512,82.18898 459.06176,62.113352 421.09389,40.142773 C 405.46302,19.310486 380.35043,-6.0594621 351.86814,5.9999761 C 362.95942,-1.337871 382.66598,-11.612213 361.61069,4.2208806 C 319.56769,44.571553 285.66061,92.252446 247.50081,135.98475 C 225.18596,153.09812 211.05505,177.79316 189.81396,195.90962 C 182.80299,203.15349 153.12062,220.87656 156.20097,212.76994 C 164.97179,203.93003 176.02886,197.83575 185.03883,189.27032 z"
         id="path2439" />
      <path
         style="opacity:1;fill:#000000;fill-opacity:1;stroke-width:3;stroke-miterlimit:4;stroke-dasharray:none"
         d="M 209.70189,117.41162 C 233.83379,92.057712 223.65216,54.104394 235.77408,23.916081 C 242.28099,-25.708746 236.84023,-79.507302 262.13344,-124.60883 C 281.44373,-147.76602 312.5432,-158.71567 341.83394,-159.98763 C 372.55962,-153.52018 385.37203,-117.75486 382.03907,-89.547383 C 389.15209,-65.571676 400.48976,-23.200328 363.77701,-19.328226 C 334.24371,-15.677732 340.38524,-54.805999 338.0896,-73.965744 C 341.64296,-103.60738 318.92078,-138.33625 285.72842,-128.98307 C 281.72524,-136.90173 323.73391,-155.80537 302.12046,-134.39656 C 281.40262,-90.286433 289.70493,-40.019836 279.37322,6.5489695 C 274.80124,31.105027 272.48995,56.212807 267.45206,80.557981 C 257.57143,103.62065 229.96549,107.81559 209.70189,117.41162 z"
         id="path2441" />
      <path
         style="opacity:1;fill:#000000;fill-opacity:1;stroke-width:3;stroke-miterlimit:4;stroke-dasharray:none"
         d="M 465.80737,-38.065468 C 475.34957,-41.361446 490.41325,-46.849268 473.06627,-38.173085 C 461.87925,-28.703162 449.08642,-28.437761 464.94099,-41.164244 C 487.70159,-74.846814 484.24679,-124.33382 520.76824,-148.74354 C 541.97327,-167.82554 582.37161,-179.00517 601.68136,-151.69069 C 619.38892,-124.89249 612.58265,-91.202598 617.05987,-61.060306 C 618.30597,-26.747133 614.76319,7.4873765 614.39561,41.781007 C 622.946,63.814452 592.82367,88.563331 572.43447,80.987786 C 564.632,63.680475 571.50578,42.556433 570.36659,23.643905 C 572.19129,-25.797582 574.64667,-76.50741 561.31099,-124.64704 C 556.09252,-143.9927 499.69536,-131.1592 532.55384,-147.82028 C 542.31569,-155.55691 556.85776,-151.72879 541.83002,-140.63318 C 525.54648,-105.78256 523.93436,-59.430244 487.58299,-37.710339 C 470.14725,-27.484529 453.63347,-11.575184 432.06826,-12.266596 C 443.31463,-20.866227 454.561,-29.465853 465.80737,-38.065468 z"
         id="path2443" />
      <path
         style="opacity:1;fill:#000000;fill-opacity:1;stroke-width:3;stroke-miterlimit:4;stroke-dasharray:none"
         d="M 206.71614,274.70926 C 220.1362,285.60837 262.45992,296.9257 231.02542,315.06439 C 210.83001,344.22109 144.91185,302.45455 189.10645,284.92089 C 195.35939,282.33549 202.12914,279.98321 206.71614,274.70926 z"
         id="path2445" />
      <path
         style="opacity:1;fill:#000000;fill-opacity:1;stroke-width:3;stroke-miterlimit:4;stroke-dasharray:none"
         d="M 575.2876,274.70926 C 592.15284,286.71653 631.32,308.14234 596.6315,325.41991 C 572.15894,348.36353 514.50018,299.9684 557.24366,285.17301 C 563.6085,282.41288 570.41289,279.89274 575.2876,274.70926 z"
         id="path2447" />
      <path
         style="opacity:1;fill:#000000;fill-opacity:1;stroke-width:3;stroke-miterlimit:4;stroke-dasharray:none"
         d="M 350.13303,424.54037 C 330.93759,444.18951 296.57475,470.11004 313.98139,500.96176 C 330.12556,523.02004 357.86532,537.14762 384.7958,539.60734 C 401.93003,535.59019 408.83629,554.73191 388.61364,555.8042 C 373.77863,536.84077 410.85991,512.71183 426.48322,501.50689 C 434.25557,496.70705 456.63297,484.66314 456.91735,485.62293 C 449.0926,491.88301 416.18919,508.17681 440.35728,493.77303 C 456.78688,486.30133 476.46847,470.44381 494.43295,477.03347 C 480.0898,490.63315 441.20901,515.16413 434.21122,505.26059 C 442.60621,497.68082 480.76922,483.46642 453.26184,498.4509 C 445.24092,503.22686 422.5362,513.70049 442.97579,502.09707 C 451.38547,496.6688 476.14073,483.43045 477.16058,480.65954 C 449.05083,493.98592 431.78822,521.37226 417.9161,547.88186 C 394.85195,575.78877 353.29764,577.54458 322.0212,563.81595 C 296.12582,553.91024 264.17319,535.23411 263.00352,504.60884 C 265.94187,476.71652 288.91201,455.34634 310.74999,440.48808 C 323.54745,434.37426 337.24107,430.43197 350.13303,424.54037 z"
         id="path2449" />
      <path
         style="opacity:1;fill:#000000;fill-opacity:1;stroke-width:3;stroke-miterlimit:4;stroke-dasharray:none"
         d="M 451.90063,543.11322 C 474.54284,543.09221 514.71801,544.19622 523.03054,541.46259 C 532.66162,535.71283 561.53754,518.7422 558.44216,519.74164 C 547.07937,526.27191 512.4706,548.26213 513.4628,546.14603 C 523.7489,539.74819 550.9356,525.12392 552.98461,523.37778 C 541.52851,528.03291 521.96007,544.19843 546.10091,532.33804 C 560.7495,525.33969 562.88064,529.38396 548.11376,535.56473 C 538.21724,541.43203 519.81292,551.31555 540.24088,539.71888 C 543.89245,537.97466 494.31699,567.2649 521.10338,551.42965 C 539.92552,538.9236 503.85275,565.64094 495.20374,566.5446 C 471.56702,575.13752 445.89021,574.84426 421.15721,572.86244 C 410.18424,560.08117 448.48286,553.06829 451.90063,543.11322 z"
         id="path2451" />
      <path
         style="opacity:1;fill:#000000;fill-opacity:1;stroke-width:3;stroke-miterlimit:4;stroke-dasharray:none"
         d="M 549.45715,738.26257 C 562.19091,757.9985 579.77461,780.90623 572.48335,805.73098 C 571.64933,818.64591 524.95541,838.58608 549.06957,816.77981 C 575.13998,792.81842 559.20522,750.54486 584.23575,725.92244 C 600.2364,699.86047 651.55508,720.62 632.99438,750.2769 C 621.36976,780.63745 567.04941,764.25533 589.44639,733.6794 C 598.22937,718.12629 628.92128,712.20886 616.18857,737.95071 C 612.98231,777.03706 590.20573,817.07018 552.52956,831.68229 C 522.22158,830.17851 514.6962,784.83916 515.2023,761.03803 C 522.5805,748.47752 538.49873,746.39334 549.45715,738.26257 z"
         id="path2453" />
      <path
         style="opacity:1;fill:#000000;fill-opacity:1;stroke-width:3;stroke-miterlimit:4;stroke-dasharray:none"
         d="M 612.18585,947.53772 C 629.79584,977.41537 642.81124,1009.6433 656.87408,1041.2601 C 690.82331,1057.032 638.8571,1108.7638 629.56059,1070.3346 C 625.30666,1040.5492 611.79108,1008.0816 626.05456,979.14985 C 644.94989,949.10474 694.76697,945.70648 716.71708,974.22076 C 738.78156,991.44718 753.59396,1036.3349 714.5219,1042.039 C 679.73347,1049.2798 692.00807,995.52986 659.20705,990.67199 C 643.6135,986.33337 632.45796,972.73331 654.46683,968.92499 C 680.03063,968.06111 656.70697,1001.2485 669.23939,1016.3262 C 676.1515,1039.0527 680.86477,1070.2182 657.53803,1085.0963 C 625.99926,1101.0908 606.98015,1068.3006 603.10534,1041.9202 C 593.2287,1018.6305 576.13551,997.8094 573.56271,971.91609 C 582.72465,958.60408 601.18769,958.56749 612.18585,947.53772 z"
         id="path2455" />
      <path
         style="opacity:1;fill:#000000;fill-opacity:1;stroke-width:3;stroke-miterlimit:4;stroke-dasharray:none"
         d="M 719.6236,746.68005 C 710.83545,781.05383 715.44081,817.78219 730.22047,849.72402 C 736.8675,871.20655 759.22571,889.1274 753.57584,913.17438 C 738.35076,941.85441 698.68,929.81479 696.33317,898.32176 C 683.18579,859.88718 658.59528,819.0838 673.82435,777.4509 C 679.90203,757.28729 704.35444,756.35005 719.6236,746.68005 z"
         id="path2457" />
      <path
         style="opacity:1;fill:#000000;fill-opacity:1;stroke-width:3;stroke-miterlimit:4;stroke-dasharray:none"
         d="M 825.92609,1045.8478 C 835.23539,1082.7945 861.18488,1114.3895 863.30638,1153.3421 C 872.18601,1185.3691 888.54933,1215.0389 894.5059,1247.9227 C 881.57883,1269.6076 841.76776,1282.5401 842.89175,1246.1001 C 828.73276,1208.8201 815.60752,1170.8927 808.33077,1131.6853 C 795.41203,1109.4937 765.43861,1066.638 806.8245,1056.0758 C 813.47614,1053.2686 820.26389,1050.4417 825.92609,1045.8478 z"
         id="path2459" />
      <path
         style="opacity:1;fill:#000000;fill-opacity:1;stroke-width:3;stroke-miterlimit:4;stroke-dasharray:none"
         d="M 661.22864,1488.6626 C 692.22709,1439.8826 690.26133,1378.3577 680.52492,1323.6016 C 671.29618,1300.9864 655.48424,1261.5141 688.8061,1251.0167 C 718.2069,1244.6516 751.06158,1265.3189 762.49988,1291.9948 C 769.3526,1328.9577 706.74804,1319.5763 718.14393,1284.3313 C 717.24702,1257.9216 726.94416,1219.9247 761.12668,1225.8449 C 797.12648,1234.5849 779.25312,1281.0218 791.63182,1307.1275 C 793.84268,1336.2193 798.87963,1366.1285 815.89715,1390.6755 C 820.23499,1404.8245 854.43244,1420.5195 825.49124,1423.0384 C 807.89825,1434.9581 789.07223,1430.234 790.81527,1408.1957 C 778.10147,1383.4129 795.33398,1345.7217 825.48992,1347.7461 C 842.49732,1370.0014 840.01388,1401.987 835.5467,1428.0108 C 818.26066,1464.5667 775.99325,1439.9759 768.15358,1410.1412 C 741.58354,1367.006 750.77772,1313.8466 732.87136,1267.7981 C 726.56845,1245.4834 772.62687,1214.2358 765.54654,1253.3115 C 768.07088,1276.3151 771.77066,1305.8398 749.43997,1320.5363 C 721.20926,1330.5956 695.06708,1296.5198 684.23061,1275.8821 C 687.18704,1254.9275 723.04351,1248.6139 718.7086,1276.38 C 726.53129,1305.506 734.10181,1335.0357 731.9751,1365.4877 C 731.41323,1399.9873 728.82174,1437.7712 707.32934,1466.2462 C 694.70794,1478.5905 675.90106,1479.8467 661.22864,1488.6626 z"
         id="path2461" />
      <path
         style="opacity:1;fill:#000000;fill-opacity:1;stroke-width:3;stroke-miterlimit:4;stroke-dasharray:none"
         d="M 768.19501,1615.2515 C 763.31355,1649.7194 764.64049,1684.9814 771.38025,1719.1077 C 765.60925,1745.2174 808.8026,1778.9332 769.63161,1795.1422 C 739.26923,1801.1866 759.96876,1761.4252 754.06602,1744.9948 C 749.93397,1715.9727 782.10777,1682.6664 810.18631,1701.308 C 831.34249,1712.3202 858.66731,1752.8281 817.92727,1756.5022 C 788.24188,1757.4978 809.41604,1716.9887 803.00248,1698.2738 C 802.78151,1674.8712 802.63096,1651.4363 804.26181,1628.0749 C 818.48938,1603.1521 865.6112,1594.5533 875.46917,1627.4576 C 886.37729,1652.9232 894.37335,1684.9577 877.38356,1709.6972 C 879.17132,1734.6238 864.8855,1766.272 837.8438,1770.0986 C 809.74254,1760.5641 842.37312,1722.5357 841.50606,1700.9481 C 852.23177,1671.7472 809.4584,1647.3548 827.88152,1619.3954 C 851.73983,1598.8429 853.05403,1635.5183 848.07758,1651.1788 C 844.42019,1683.69 857.72664,1719.1426 840.40216,1749.1377 C 824.02164,1781.556 783.7414,1762.7933 775.21203,1734.6801 C 750.91783,1715.0053 814.16424,1684.9277 799.57811,1718.4788 C 799.32314,1743.742 808.60473,1776.7858 783.85274,1793.8432 C 757.59921,1815.391 726.21395,1786.7659 728.55823,1757.7899 C 723.0037,1722.3654 716.22506,1686.0222 721.4166,1650.2144 C 727.41266,1629.3725 750.35925,1622.4934 768.19501,1615.2515 z"
         id="path2463" />
      <path
         style="opacity:1;fill:#000000;fill-opacity:1;stroke-width:3;stroke-miterlimit:4;stroke-dasharray:none"
         d="M 909.13165,1476.3226 C 929.53429,1500.7065 924.35265,1534.1832 926.91046,1563.5453 C 958.52949,1569.5418 914.1204,1589.9344 903.13531,1596.077 C 917.36739,1578.4235 925.94594,1555.6623 924.08038,1532.5493 C 922.46767,1506.0281 914.44838,1480.1035 904.76787,1455.6509 C 886.82376,1440.7882 891.7663,1395.5455 920.47367,1412.5282 C 928.17672,1434.1972 894.99365,1459.8099 874.75242,1452.5158 C 867.6395,1433.0807 884.82156,1412.0123 901.00481,1402.1263 C 931.92422,1382.3867 950.37966,1420.3499 954.16409,1445.4132 C 964.5952,1474.9999 973.8712,1506.3701 967.12873,1538.0179 C 963.43039,1567.4211 936.97384,1590.9336 908.68332,1596.3999 C 870.45015,1600.4068 880.8346,1554.361 879.39027,1530.7067 C 869.01431,1512.7094 865.75828,1488.2406 893.15042,1485.6418 C 898.87877,1483.4267 905.03743,1481.1509 909.13165,1476.3226 z"
         id="path2465" />
      <path
         style="opacity:1;fill:#000000;fill-opacity:1;stroke-width:3;stroke-miterlimit:4;stroke-dasharray:none"
         d="M 966.1203,1699.8843 C 979.72629,1731.2284 991.03639,1764.1652 992.7638,1798.5468 C 995.06113,1816.2255 1024.3343,1825.081 1028.2312,1829.6227 C 1015.4397,1843.5154 983.95453,1850.4484 992.89346,1821.8811 C 986.14626,1789.4679 964.10471,1763.6566 943.43419,1739.0641 C 922.68519,1712.8123 975.39512,1668.9211 987.27854,1705.851 C 1004.7787,1741.9225 1040.3945,1771.3471 1039.7767,1814.3184 C 1038.7096,1852.5687 978.82662,1872.725 957.65319,1838.5265 C 938.44777,1810.7356 948.59972,1772.705 927.83956,1745.4375 C 916.10358,1719.3525 948.90212,1708.9383 966.1203,1699.8843 z"
         id="path2467" />
      <path
         style="opacity:1;fill:#000000;fill-opacity:1;stroke-width:3;stroke-miterlimit:4;stroke-dasharray:none"
         d="M 160.56021,207.75114 C 182.44034,226.68216 187.63108,273.15822 150.95258,276.79177 C 120.56794,277.84156 110.0427,220.74434 144.64215,216.6638 C 150.25524,214.32444 155.95504,211.83158 160.56021,207.75114 z"
         id="path2469" />
      <path
         style="opacity:1;fill:#000000;fill-opacity:1;stroke-width:3;stroke-miterlimit:4;stroke-dasharray:none"
         d="M 620.78278,177.71317 C 648.9379,184.1522 669.43455,229.44739 631.43566,236.91081 C 608.49578,246.83178 572.427,207.63246 595.75691,190.05186 C 603.82554,185.35852 613.8475,184.39262 620.78278,177.71317 z"
         id="path2471" />
    </g>
  </g>
</svg>
